<?xml version="1.0" encoding="utf-8"?>
<!-- Generator: Adobe Illustrator 23.0.5, SVG Export Plug-In . SVG Version: 6.00 Build 0)  -->
<svg version="1.1" id="Слой_1" xmlns="http://www.w3.org/2000/svg" xmlns:xlink="http://www.w3.org/1999/xlink" x="0px" y="0px"
	 viewBox="0 0 369 49" style="enable-background:new 0 0 369 49;" xml:space="preserve">
<style type="text/css">
	.st0{stroke:#000000;stroke-width:2;stroke-miterlimit:10; stroke-dasharray: 100; animation: test 1s ease;}
	@keyframes test {
    	from {
        	background: none;
    	}
	}
</style>
<g>
	<path class="st0" d="M12.52,3.77v16.58h19.17V3.77h5.17V43.4h-5.17V24.82H12.52V43.4H7.41V3.77H12.52z"/>
	<path class="st0" d="M66.25,24.82h-15.4V39.1h17.17v4.29H45.73V3.77h21.4v4.29H50.85v12.52h15.4V24.82z"/>
	<path class="st0" d="M74.66,3.77h5.11V39.1H96.7v4.29H74.66V3.77z"/>
	<path class="st0" d="M102.4,3.77h5.11V39.1h16.93v4.29H102.4V3.77z"/>
	<path class="st0" d="M161.72,23.17c0,13.64-8.29,20.87-18.4,20.87c-10.47,0-17.81-8.11-17.81-20.11c0-12.58,7.82-20.81,18.4-20.81
		C154.73,3.12,161.72,11.41,161.72,23.17z M130.97,23.82c0,8.47,4.59,16.05,12.64,16.05c8.11,0,12.7-7.47,12.7-16.46
		c0-7.88-4.12-16.11-12.64-16.11C135.21,7.3,130.97,15.12,130.97,23.82z"/>
	<path class="st0" d="M185.17,43.4L175.12,3.77h5.41l4.7,20.05c1.18,4.94,2.23,9.88,2.94,13.7h0.12c0.65-3.94,1.88-8.64,3.23-13.76
		l5.29-19.99h5.35l4.82,20.11c1.12,4.7,2.18,9.41,2.76,13.58h0.12c0.82-4.35,1.94-8.76,3.17-13.7l5.23-19.99h5.23L212.28,43.4h-5.35
		l-5-20.64c-1.24-5.06-2.06-8.94-2.59-12.93h-0.12c-0.71,3.94-1.59,7.82-3.06,12.93l-5.64,20.64H185.17z"/>
	<path class="st0" d="M262.3,23.17c0,13.64-8.29,20.87-18.4,20.87c-10.46,0-17.81-8.11-17.81-20.11c0-12.58,7.82-20.81,18.4-20.81
		C255.31,3.12,262.3,11.41,262.3,23.17z M231.56,23.82c0,8.47,4.59,16.05,12.64,16.05c8.11,0,12.7-7.47,12.7-16.46
		c0-7.88-4.12-16.11-12.64-16.11C235.79,7.3,231.56,15.12,231.56,23.82z"/>
	<path class="st0" d="M268.94,4.3c2.59-0.53,6.29-0.82,9.82-0.82c5.47,0,9,1,11.46,3.23c2,1.76,3.12,4.47,3.12,7.53
		c0,5.23-3.29,8.7-7.47,10.11v0.18c3.06,1.06,4.88,3.88,5.82,8c1.29,5.53,2.23,9.35,3.06,10.88h-5.29
		c-0.65-1.12-1.53-4.53-2.65-9.47c-1.18-5.47-3.29-7.53-7.94-7.7h-4.82V43.4h-5.12V4.3z M274.06,22.35h5.23c5.47,0,8.94-3,8.94-7.53
		c0-5.11-3.7-7.35-9.11-7.41c-2.47,0-4.23,0.24-5.06,0.47V22.35z"/>
	<path class="st0" d="M300.57,3.77h5.12V39.1h16.93v4.29h-22.05V3.77z"/>
	<path class="st0" d="M328.32,4.3c3.12-0.47,6.82-0.82,10.88-0.82c7.35,0,12.58,1.71,16.05,4.94c3.53,3.23,5.59,7.82,5.59,14.23
		c0,6.47-2,11.76-5.7,15.4c-3.7,3.7-9.82,5.7-17.52,5.7c-3.65,0-6.7-0.18-9.29-0.47V4.3z M333.43,39.34
		c1.29,0.24,3.17,0.29,5.17,0.29c10.94,0,16.87-6.11,16.87-16.81c0.06-9.35-5.23-15.29-16.05-15.29c-2.65,0-4.64,0.24-6,0.53V39.34z
		"/>
</g>
</svg>
